<svg width="36" height="37" viewBox="0 0 36 37" fill="none" xmlns="http://www.w3.org/2000/svg">
<path d="M30 5.30713H6C5.60218 5.30713 5.22064 5.46516 4.93934 5.74647C4.65804 6.02777 4.5 6.4093 4.5 6.80713V30.8071C4.5 31.205 4.65804 31.5865 4.93934 31.8678C5.22064 32.1491 5.60218 32.3071 6 32.3071H18.9225V21.8671H15.4155V17.7796H18.9225V14.7796C18.9225 11.2921 21.0525 9.39163 24.1725 9.39163C25.221 9.38863 26.271 9.44263 27.315 9.55213V13.1821H25.1625C23.4705 13.1821 23.1405 13.9891 23.1405 15.1696V17.7721H27.186L26.661 21.8596H23.139V32.3071H30C30.3978 32.3071 30.7794 32.1491 31.0607 31.8678C31.342 31.5865 31.5 31.205 31.5 30.8071V6.80713C31.5 6.4093 31.342 6.02777 31.0607 5.74647C30.7794 5.46516 30.3978 5.30713 30 5.30713Z" fill="black"/>
</svg>
