<svg width="36" height="37" viewBox="0 0 36 37" fill="none" xmlns="http://www.w3.org/2000/svg">
<path d="M11.7045 9.40369C12.588 9.40369 13.383 9.48019 14.112 9.63619C14.8365 9.79069 15.4545 10.0457 15.9765 10.3982C16.491 10.7507 16.893 11.2187 17.1825 11.8067C17.463 12.3872 17.6025 13.1132 17.6025 13.9712C17.6025 14.9012 17.3925 15.6782 16.971 16.2977C16.5465 16.9187 15.921 17.4272 15.087 17.8202C16.2225 18.1487 17.064 18.7232 17.622 19.5392C18.183 20.3627 18.4575 21.3482 18.4575 22.5032C18.4575 23.4407 18.279 24.2462 17.9205 24.9227C17.575 25.5891 17.0738 26.1623 16.4595 26.5937C15.8232 27.0368 15.1124 27.362 14.361 27.5537C13.5732 27.7605 12.762 27.8643 11.9475 27.8627H3V9.40369H11.7045ZM11.178 16.8617C11.898 16.8617 12.495 16.6907 12.966 16.3442C13.434 16.0022 13.6605 15.4382 13.6605 14.6657C13.6605 14.2367 13.584 13.8827 13.434 13.6052C13.2879 13.3382 13.0716 13.1162 12.8085 12.9632C12.5331 12.7999 12.2292 12.6904 11.913 12.6407C11.5683 12.5764 11.2181 12.5458 10.8675 12.5492H7.065V16.8617H11.178ZM11.4045 24.7202C11.805 24.7202 12.186 24.6857 12.5445 24.6047C12.906 24.5267 13.227 24.4007 13.5 24.2132C13.773 24.0332 13.998 23.7887 14.16 23.4767C14.3235 23.1677 14.403 22.7642 14.403 22.2797C14.403 21.3287 14.1345 20.6522 13.6035 20.2427C13.071 19.8377 12.357 19.6367 11.4825 19.6367H7.065V24.7217H11.4045V24.7202ZM24.252 24.6587C24.8025 25.1957 25.596 25.4657 26.628 25.4657C27.3675 25.4657 28.0065 25.2782 28.545 24.9062C29.076 24.5327 29.4 24.1337 29.5245 23.7212H32.757C32.238 25.3292 31.4505 26.4782 30.3735 27.1697C29.31 27.8642 28.0155 28.2092 26.5035 28.2092C25.4505 28.2092 24.5025 28.0397 23.6535 27.7037C22.8386 27.3863 22.1022 26.8961 21.495 26.2667C20.8978 25.6226 20.4362 24.8651 20.1375 24.0392C19.8092 23.1258 19.6466 22.1612 19.6575 21.1907C19.6575 20.1917 19.824 19.2572 20.151 18.3947C20.4614 17.561 20.9381 16.799 21.552 16.1552C22.1595 15.5252 22.8795 15.0287 23.718 14.6642C24.5997 14.2934 25.5485 14.1085 26.505 14.1212C27.636 14.1212 28.6245 14.3402 29.4735 14.7812C30.2968 15.2022 31.0107 15.8092 31.5585 16.5542C32.103 17.2937 32.4915 18.1412 32.733 19.0907C32.9745 20.0387 33.0585 21.0287 32.9895 22.0652H23.343C23.3445 23.1212 23.7 24.1217 24.252 24.6587ZM28.47 17.6372C28.0335 17.1542 27.2955 16.8932 26.3925 16.8932C25.806 16.8932 25.3215 16.9907 24.9315 17.1917C24.5749 17.3718 24.2585 17.6223 24.0015 17.9282C23.7758 18.2059 23.6084 18.5263 23.5095 18.8702C23.423 19.157 23.3672 19.4521 23.343 19.7507H29.316C29.229 18.8147 28.908 18.1232 28.47 17.6372ZM22.593 10.6427H30.0765V12.4652H22.593V10.6427Z" fill="black"/>
</svg>
