<svg width="36" height="37" viewBox="0 0 36 37" fill="none" xmlns="http://www.w3.org/2000/svg">
<path d="M17.9984 11.8726C16.1589 11.8726 14.3947 12.6033 13.0939 13.9041C11.7932 15.2048 11.0624 16.969 11.0624 18.8086C11.0624 20.6481 11.7932 22.4123 13.0939 23.7131C14.3947 25.0138 16.1589 25.7446 17.9984 25.7446C19.838 25.7446 21.6022 25.0138 22.9029 23.7131C24.2037 22.4123 24.9344 20.6481 24.9344 18.8086C24.9344 16.969 24.2037 15.2048 22.9029 13.9041C21.6022 12.6033 19.838 11.8726 17.9984 11.8726ZM17.9984 23.3131C16.8034 23.3131 15.6572 22.8383 14.8122 21.9933C13.9672 21.1483 13.4924 20.0021 13.4924 18.8071C13.4924 17.612 13.9672 16.4659 14.8122 15.6209C15.6572 14.7758 16.8034 14.3011 17.9984 14.3011C19.1935 14.3011 20.3396 14.7758 21.1847 15.6209C22.0297 16.4659 22.5044 17.612 22.5044 18.8071C22.5044 20.0021 22.0297 21.1483 21.1847 21.9933C20.3396 22.8383 19.1935 23.3131 17.9984 23.3131Z" fill="black"/>
<path d="M25.2089 13.2346C26.102 13.2346 26.8259 12.5106 26.8259 11.6176C26.8259 10.7245 26.102 10.0006 25.2089 10.0006C24.3159 10.0006 23.5919 10.7245 23.5919 11.6176C23.5919 12.5106 24.3159 13.2346 25.2089 13.2346Z" fill="black"/>
<path d="M30.7994 9.97358C30.4522 9.07685 29.9215 8.2625 29.2414 7.58266C28.5613 6.90283 27.7468 6.37248 26.8499 6.02558C25.8004 5.63161 24.6917 5.41859 23.5709 5.39558C22.1264 5.33258 21.6689 5.31458 18.0059 5.31458C14.3429 5.31458 13.8734 5.31458 12.4409 5.39558C11.321 5.41741 10.2131 5.63048 9.16493 6.02558C8.26783 6.37208 7.45308 6.90228 6.77293 7.58217C6.09279 8.26206 5.56227 9.07661 5.21543 9.97358C4.82139 11.023 4.60885 12.1318 4.58693 13.2526C4.52243 14.6956 4.50293 15.1531 4.50293 18.8176C4.50293 22.4806 4.50293 22.9471 4.58693 24.3826C4.60943 25.5046 4.82093 26.6116 5.21543 27.6631C5.56325 28.5597 6.09427 29.3739 6.77458 30.0537C7.45489 30.7335 8.26953 31.2639 9.16643 31.6111C10.2126 32.0209 11.321 32.2491 12.4439 32.2861C13.8884 32.3491 14.3459 32.3686 18.0089 32.3686C21.6719 32.3686 22.1414 32.3686 23.5739 32.2861C24.6946 32.2633 25.8033 32.0508 26.8529 31.6576C27.7496 31.3099 28.5639 30.7791 29.2439 30.099C29.9239 29.419 30.4547 28.6047 30.8024 27.7081C31.1969 26.6581 31.4084 25.5511 31.4309 24.4291C31.4954 22.9861 31.5149 22.5286 31.5149 18.8641C31.5149 15.1996 31.5149 14.7346 31.4309 13.2991C31.4135 12.1625 31.1998 11.0374 30.7994 9.97358ZM28.9724 24.2716C28.9628 25.136 28.805 25.9924 28.5059 26.8036C28.2807 27.3869 27.9358 27.9166 27.4935 28.3586C27.0513 28.8006 26.5214 29.1452 25.9379 29.3701C25.1358 29.6677 24.2885 29.8255 23.4329 29.8366C22.0079 29.9026 21.6059 29.9191 17.9519 29.9191C14.2949 29.9191 13.9214 29.9191 12.4694 29.8366C11.6143 29.8261 10.7674 29.6683 9.96593 29.3701C9.38046 29.1466 8.84843 28.8026 8.40426 28.3605C7.9601 27.9184 7.61368 27.388 7.38743 26.8036C7.0926 26.0012 6.9349 25.1548 6.92093 24.3001C6.85643 22.8751 6.84143 22.4731 6.84143 18.8191C6.84143 15.1636 6.84143 14.7901 6.92093 13.3366C6.93063 12.4726 7.08841 11.6167 7.38743 10.8061C7.84493 9.62258 8.78243 8.69108 9.96593 8.23808C10.7678 7.94129 11.6145 7.78352 12.4694 7.77158C13.8959 7.70708 14.2964 7.68907 17.9519 7.68907C21.6074 7.68907 21.9824 7.68908 23.4329 7.77158C24.2885 7.78187 25.136 7.93968 25.9379 8.23808C26.5213 8.46348 27.0511 8.80838 27.4934 9.25062C27.9356 9.69286 28.2805 10.2227 28.5059 10.8061C28.8008 11.6085 28.9585 12.4548 28.9724 13.3096C29.0369 14.7361 29.0534 15.1366 29.0534 18.7921C29.0534 22.4461 29.0534 22.8391 28.9889 24.2731H28.9724V24.2716Z" fill="black"/>
</svg>
