<svg width="36" height="37" viewBox="0 0 36 37" fill="none" xmlns="http://www.w3.org/2000/svg">
<path d="M30.99 11.2771C29.6811 9.00872 27.7973 7.12544 25.5285 5.81713C23.229 4.47763 20.7195 3.80713 18 3.80713C15.2805 3.80713 12.771 4.47763 10.47 5.81713C8.1705 7.15663 6.3495 8.97763 5.01 11.2771C3.6705 13.5766 3 16.0876 3 18.8071C3 21.5266 3.669 24.0376 5.01 26.3371C6.31848 28.6059 8.20238 30.4893 10.4715 31.7971C12.771 33.1366 15.2805 33.8071 18 33.8071C20.7195 33.8071 23.229 33.1366 25.53 31.7971C27.7988 30.4888 29.6826 28.6055 30.9915 26.3371C32.331 24.0376 33 21.5266 33 18.8071C33 16.0876 32.331 13.5766 30.99 11.2771ZM18 6.29713C21 6.29713 23.658 7.25713 25.98 9.17563C24.6 10.9366 22.551 12.3856 19.83 13.5256C18.327 10.8061 16.698 8.53513 14.9385 6.71563C15.9357 6.4399 16.9654 6.29915 18 6.29713V6.29713ZM8.265 11.0071C9.36186 9.61427 10.7497 8.47779 12.3315 7.67713C14.1495 9.47863 15.819 11.7271 17.3415 14.4271C14.3415 15.3271 11.1705 15.7771 7.83 15.7771C6.9705 15.7771 6.321 15.7576 5.88 15.7171C6.33971 13.9987 7.15192 12.3947 8.265 11.0071V11.0071ZM5.49 18.8071C5.49 18.7261 5.4945 18.6271 5.505 18.5071C5.5155 18.3871 5.52 18.2881 5.52 18.2071C5.901 18.2281 6.4815 18.2371 7.2615 18.2371C11.2605 18.2371 14.9805 17.6866 18.42 16.5871C18.7005 17.1466 18.9915 17.7766 19.29 18.4771C17.31 18.9166 15.279 19.9861 13.1985 21.6871C11.118 23.3881 9.6 25.1776 8.64 27.0571C6.54 24.6766 5.49 21.9271 5.49 18.8071V18.8071ZM18 31.3171C15.159 31.3171 12.609 30.4366 10.3485 28.6786C11.25 26.8981 12.6345 25.1956 14.505 23.5771C16.374 21.9571 18.2295 20.9476 20.07 20.5471C21.231 23.7556 22.0162 27.0878 22.41 30.4771C21.0043 31.0264 19.5092 31.3112 18 31.3171V31.3171ZM28.62 25.3771C27.6382 26.9589 26.3161 28.302 24.75 29.3086C24.39 26.1886 23.7 23.1481 22.6815 20.1871C24.0795 20.0881 25.329 20.0371 26.4315 20.0371C27.63 20.0371 28.9605 20.0881 30.42 20.1871C30.2242 22.0319 29.6084 23.8073 28.62 25.3771ZM26.76 17.8771C25.02 17.8771 23.4105 17.9476 21.93 18.0871C21.6164 17.2663 21.2762 16.4559 20.91 15.6571C24.009 14.2981 26.208 12.6481 27.5085 10.7071C29.3085 12.8281 30.2895 15.2476 30.4485 17.9671C29.2305 17.9071 28.0005 17.8771 26.76 17.8771V17.8771Z" fill="black"/>
</svg>
