<svg width="36" height="37" viewBox="0 0 36 37" fill="none" xmlns="http://www.w3.org/2000/svg">
<path d="M14.3895 17.2636C13.5765 17.2636 12.936 17.9761 12.936 18.8461C12.936 19.7131 13.5915 20.4286 14.3895 20.4286C15.201 20.4286 15.8415 19.7131 15.8415 18.8461C15.858 17.9746 15.201 17.2636 14.3895 17.2636ZM19.5915 17.2636C18.7785 17.2636 18.138 17.9761 18.138 18.8461C18.138 19.7131 18.7935 20.4286 19.5915 20.4286C20.403 20.4286 21.0435 19.7131 21.0435 18.8461C21.042 17.9746 20.403 17.2636 19.5915 17.2636Z" fill="black"/>
<path d="M26.517 5.30713H7.42051C7.036 5.30811 6.65545 5.38482 6.30058 5.53288C5.94572 5.68093 5.62349 5.89743 5.35229 6.17002C5.0811 6.44261 4.86625 6.76594 4.72002 7.12156C4.57378 7.47718 4.49902 7.85812 4.50001 8.24263V27.5086C4.50001 29.1331 5.81101 30.4441 7.42051 30.4441H23.58L22.8225 27.8056L24.648 29.5021L26.3715 31.0981L29.4375 33.8071V8.24263C29.4385 7.85812 29.3637 7.47718 29.2175 7.12156C29.0713 6.76594 28.8564 6.44261 28.5852 6.17002C28.314 5.89743 27.9918 5.68093 27.6369 5.53288C27.2821 5.38482 26.9015 5.30811 26.517 5.30713ZM21.015 23.9176C21.015 23.9176 20.502 23.3056 20.076 22.7611C21.942 22.2331 22.6545 21.0661 22.6545 21.0661C22.0695 21.4501 21.5145 21.7231 21.015 21.9091C19.1965 22.6702 17.194 22.8779 15.258 22.5061C14.5427 22.3656 13.8417 22.1598 13.164 21.8911C12.8066 21.7554 12.4592 21.5945 12.1245 21.4096C12.081 21.3781 12.039 21.3661 11.997 21.3376C11.9745 21.3269 11.9546 21.3116 11.9385 21.2926C11.682 21.1516 11.5395 21.0526 11.5395 21.0526C11.5395 21.0526 12.2235 22.1926 14.034 22.7341C13.6065 23.2741 13.0785 23.9176 13.0785 23.9176C9.93001 23.8171 8.73451 21.7516 8.73451 21.7516C8.73451 17.1631 10.7865 13.4446 10.7865 13.4446C12.8385 11.9041 14.79 11.9476 14.79 11.9476L14.9325 12.1186C12.3675 12.8611 11.184 13.9861 11.184 13.9861C11.184 13.9861 11.499 13.8151 12.0255 13.5736C13.5495 12.9046 14.76 12.7186 15.2595 12.6751C15.345 12.6616 15.417 12.6466 15.5025 12.6466C17.9733 12.3137 20.4857 12.7832 22.6695 13.9861C22.6695 13.9861 21.543 12.9181 19.1205 12.1771L19.32 11.9491C19.32 11.9491 21.273 11.9056 23.3235 13.4461C23.3235 13.4461 25.3755 17.1646 25.3755 21.7531C25.3755 21.7531 24.165 23.8171 21.015 23.9176Z" fill="black"/>
</svg>
