<svg width="120" height="21" viewBox="0 0 120 21" fill="none" xmlns="http://www.w3.org/2000/svg">
<path d="M9.10326 2.62387C9.47008 1.88062 10.5299 1.88062 10.8967 2.62387L12.7063 6.29036C12.8519 6.5855 13.1335 6.79007 13.4592 6.8374L17.5054 7.42535C18.3256 7.54453 18.6531 8.55251 18.0596 9.13104L15.1318 11.985C14.8961 12.2147 14.7885 12.5457 14.8442 12.8701L15.5353 16.9C15.6754 17.7169 14.818 18.3399 14.0844 17.9542L10.4653 16.0515C10.174 15.8984 9.82598 15.8984 9.53466 16.0515L5.91562 17.9542C5.18199 18.3399 4.32456 17.7169 4.46467 16.9L5.15585 12.8701C5.21148 12.5457 5.10393 12.2147 4.86825 11.985L1.94038 9.13104C1.34687 8.55251 1.67438 7.54453 2.4946 7.42535L6.54081 6.8374C6.86652 6.79007 7.14808 6.5855 7.29374 6.29036L9.10326 2.62387Z" fill="#2D2D2D"/>
<path d="M34.1033 2.62387C34.4701 1.88062 35.5299 1.88062 35.8967 2.62387L37.7063 6.29036C37.8519 6.5855 38.1335 6.79007 38.4592 6.8374L42.5054 7.42535C43.3256 7.54453 43.6531 8.55251 43.0596 9.13104L40.1318 11.985C39.8961 12.2147 39.7885 12.5457 39.8442 12.8701L40.5353 16.9C40.6754 17.7169 39.818 18.3399 39.0844 17.9542L35.4653 16.0515C35.174 15.8984 34.826 15.8984 34.5347 16.0515L30.9156 17.9542C30.182 18.3399 29.3246 17.7169 29.4647 16.9L30.1558 12.8701C30.2115 12.5457 30.1039 12.2147 29.8682 11.985L26.9404 9.13104C26.3469 8.55251 26.6744 7.54453 27.4946 7.42535L31.5408 6.8374C31.8665 6.79007 32.1481 6.5855 32.2937 6.29036L34.1033 2.62387Z" fill="#2D2D2D"/>
<path d="M59.1033 2.62387C59.4701 1.88062 60.5299 1.88062 60.8967 2.62387L62.7063 6.29036C62.8519 6.5855 63.1335 6.79007 63.4592 6.8374L67.5054 7.42535C68.3256 7.54453 68.6531 8.55251 68.0596 9.13104L65.1318 11.985C64.8961 12.2147 64.7885 12.5457 64.8442 12.8701L65.5353 16.9C65.6754 17.7169 64.818 18.3399 64.0844 17.9542L60.4653 16.0515C60.174 15.8984 59.826 15.8984 59.5347 16.0515L55.9156 17.9542C55.182 18.3399 54.3246 17.7169 54.4647 16.9L55.1558 12.8701C55.2115 12.5457 55.1039 12.2147 54.8682 11.985L51.9404 9.13104C51.3469 8.55251 51.6744 7.54453 52.4946 7.42535L56.5408 6.8374C56.8665 6.79007 57.1481 6.5855 57.2937 6.29036L59.1033 2.62387Z" fill="#2D2D2D"/>
<path d="M84.1033 2.62387C84.4701 1.88062 85.5299 1.88062 85.8967 2.62387L87.7063 6.29036C87.8519 6.5855 88.1335 6.79007 88.4592 6.8374L92.5054 7.42535C93.3256 7.54453 93.6531 8.55251 93.0596 9.13104L90.1318 11.985C89.8961 12.2147 89.7885 12.5457 89.8442 12.8701L90.5353 16.9C90.6754 17.7169 89.818 18.3399 89.0844 17.9542L85.4653 16.0515C85.174 15.8984 84.826 15.8984 84.5347 16.0515L80.9156 17.9542C80.182 18.3399 79.3246 17.7169 79.4647 16.9L80.1558 12.8701C80.2115 12.5457 80.1039 12.2147 79.8682 11.985L76.9404 9.13104C76.3469 8.55251 76.6744 7.54453 77.4946 7.42535L81.5408 6.8374C81.8665 6.79007 82.1481 6.5855 82.2937 6.29036L84.1033 2.62387Z" fill="#2D2D2D"/>
<path d="M109.103 2.62387C109.47 1.88062 110.53 1.88062 110.897 2.62387L112.706 6.29036C112.852 6.5855 113.133 6.79007 113.459 6.8374L117.505 7.42535C118.326 7.54453 118.653 8.55251 118.06 9.13104L115.132 11.985C114.896 12.2147 114.789 12.5457 114.844 12.8701L115.535 16.9C115.675 17.7169 114.818 18.3399 114.084 17.9542L110.465 16.0515C110.174 15.8984 109.826 15.8984 109.535 16.0515L105.916 17.9542C105.182 18.3399 104.325 17.7169 104.465 16.9L105.156 12.8701C105.211 12.5457 105.104 12.2147 104.868 11.985L101.94 9.13104C101.347 8.55251 101.674 7.54453 102.495 7.42535L106.541 6.8374C106.867 6.79007 107.148 6.5855 107.294 6.29036L109.103 2.62387Z" fill="#2D2D2D"/>
</svg>
